HIERARCHY
ROOT Hips
{
	OFFSET 0.000000 93.385445 0.000000
	CHANNELS 6 Xposition Yposition Zposition Xrotation Yrotation Zrotation
	JOINT RightUpLeg
	{
		OFFSET -8.267204 -0.002556 0.000284
		CHANNELS 6 Xposition Yposition Zposition Xrotation Yrotation Zrotation
		JOINT RightLeg
		{
			OFFSET 0.000000 -42.978920 0.000356
			CHANNELS 6 Xposition Yposition Zposition Xrotation Yrotation Zrotation
			JOINT RightFoot
			{
				OFFSET 0.000000 -41.964985 0.000601
				CHANNELS 6 Xposition Yposition Zposition Xrotation Yrotation Zrotation
				JOINT RightToeBase
				{
					OFFSET 0.000000 -6.852513 15.501974
					CHANNELS 6 Xposition Yposition Zposition Xrotation Yrotation Zrotation
					End Site
					{
						OFFSET 0.000000 0.000000 16.948986
					}
				}
			}
		}
	}
	JOINT LeftUpLeg
	{
		OFFSET 8.267204 -0.004822 0.000536
		CHANNELS 6 Xposition Yposition Zposition Xrotation Yrotation Zrotation
		JOINT LeftLeg
		{
			OFFSET 0.000000 -42.978920 0.000356
			CHANNELS 6 Xposition Yposition Zposition Xrotation Yrotation Zrotation
			JOINT LeftFoot
			{
				OFFSET 0.000000 -41.964985 0.000601
				CHANNELS 6 Xposition Yposition Zposition Xrotation Yrotation Zrotation
				JOINT LeftToeBase
				{
					OFFSET 0.000000 -6.852513 15.501974
					CHANNELS 6 Xposition Yposition Zposition Xrotation Yrotation Zrotation
					End Site
					{
						OFFSET 0.000000 0.000000 16.948986
					}
				}
			}
		}
	}
	JOINT Spine
	{
		OFFSET 0.000000 10.062492 -1.118055
		CHANNELS 6 Xposition Yposition Zposition Xrotation Yrotation Zrotation
		JOINT Spine1
		{
			OFFSET 0.000000 11.181747 0.000000
			CHANNELS 3 Xrotation Yrotation Zrotation
			JOINT Spine2
			{
				OFFSET 0.000000 10.208565 0.001507
				CHANNELS 6 Xposition Yposition Zposition Xrotation Yrotation Zrotation
				JOINT Spine3
				{
					OFFSET 0.000000 10.197166 0.001508
					CHANNELS 6 Xposition Yposition Zposition Xrotation Yrotation Zrotation
					JOINT LeftShoulder
					{
						OFFSET 3.104119 8.005707 0.000000
						CHANNELS 6 Xposition Yposition Zposition Xrotation Yrotation Zrotation
						JOINT LeftArm
						{
							OFFSET 14.462845 0.000000 0.000000
							CHANNELS 3 Xrotation Yrotation Zrotation
							JOINT LeftForeArm
							{
								OFFSET 30.948917 0.000000 0.000000
								CHANNELS 3 Xrotation Yrotation Zrotation
								JOINT LeftHand
								{
									OFFSET 25.302570 0.000000 0.000000
									CHANNELS 3 Xrotation Yrotation Zrotation
									End Site
									{
										OFFSET 25.302567 0.000000 0.000000
									}
								}
							}
						}
					}
					JOINT RightShoulder
					{
						OFFSET -3.104119 8.005707 0.000000
						CHANNELS 6 Xposition Yposition Zposition Xrotation Yrotation Zrotation
						JOINT RightArm
						{
							OFFSET -14.462845 0.000000 0.000000
							CHANNELS 3 Xrotation Yrotation Zrotation
							JOINT RightForeArm
							{
								OFFSET -30.948917 0.000000 0.000000
								CHANNELS 3 Xrotation Yrotation Zrotation
								JOINT RightHand
								{
									OFFSET -25.302570 0.000000 0.000000
									CHANNELS 3 Xrotation Yrotation Zrotation
									End Site
									{
										OFFSET -25.302567 0.000000 0.000000
									}
								}
							}
						}
					}
					JOINT Neck
					{
						OFFSET 0.000000 14.283447 0.000000
						CHANNELS 6 Xposition Yposition Zposition Xrotation Yrotation Zrotation
						JOINT Head
						{
							OFFSET 0.000000 9.493164 -0.003241
							CHANNELS 6 Xposition Yposition Zposition Xrotation Yrotation Zrotation
							End Site
							{
								OFFSET 0.000000 9.493164 0.000000
							}
						}
					}
				}
			}
		}
	}
}
MOTION
Frames: 6
Frame Time: 0.016667
0.000000 93.385437 0.000000 -0.000000 0.000000 -0.000000 -8.267204 -0.002556 0.000284 -0.000000 0.000000 -0.000000 0.000000 -42.978920 0.000356 -0.000000 0.000000 -0.000000 -0.000001 -41.964985 0.000601 0.000000 0.000000 0.000000 -0.000001 -6.852512 15.501974 0.000000 0.000000 0.000000 8.267204 -0.004822 0.000536 -0.000000 0.000000 -0.000000 0.000000 -42.978920 0.000356 -0.000000 0.000000 -0.000000 0.000001 -41.964985 0.000601 0.000000 0.000000 0.000000 0.000001 -6.852512 15.501974 0.000000 0.000000 0.000000 0.000000 10.062492 -1.118055 -0.000000 0.000000 -0.000000 -0.000000 0.000000 -0.000000 0.000000 10.208565 0.001507 -0.000000 0.000000 -0.000000 0.000000 10.197151 0.001508 -0.000000 0.000000 -0.000000 3.104119 8.005707 0.000000 -0.000000 0.000000 -0.000000 -0.000000 0.000000 -0.000000 -0.000000 0.000000 -0.000000 -0.000000 0.000000 -0.000000 -3.104119 8.005707 0.000000 -0.000000 0.000000 -0.000000 -0.000000 0.000000 -0.000000 -0.000000 0.000000 -0.000000 -0.000000 0.000000 -0.000000 0.000000 14.283447 0.000000 -0.000000 0.000000 -0.000000 0.000000 9.493164 -0.003241 -0.000000 0.000000 -0.000000 
-195.464600 46.469711 97.618263 -41.183073 86.992479 39.023675 -8.267204 -0.002557 0.000285 0.665218 6.215294 2.068418 -0.000008 -42.978912 0.000342 106.120868 -0.797503 -2.023861 0.000006 -41.965004 0.000608 0.273661 3.409767 14.407884 -0.000004 -6.852548 15.501967 -82.186184 -0.812208 1.441139 8.267206 -0.004819 0.000536 -1.044793 2.596248 9.481188 -0.000009 -42.978920 0.000342 112.125478 1.954726 2.125854 0.000005 -41.964996 0.000604 -2.740750 0.053186 -4.971468 -0.000003 -6.852482 15.501978 -52.883228 0.119011 -16.249553 0.000002 10.062489 -1.118041 7.771981 3.153806 0.984109 -2.368138 1.328176 0.628112 -0.000009 10.208575 0.001509 3.452293 1.328109 0.628247 0.000006 10.197159 0.001512 8.427912 1.036069 0.375351 3.104114 8.005717 0.000003 -8.306313 -8.951635 -8.900892 -9.800633 -3.507302 -76.677111 -8.087217 -20.842592 -8.228453 13.099399 8.977171 -1.327495 -3.104131 8.005728 0.000005 -4.308433 -9.534387 10.818296 -13.122588 8.850080 70.741997 9.628577 27.694363 5.855102 24.381581 -8.543414 14.874841 -0.000014 14.283442 0.000009 8.379266 -9.762431 2.036821 -0.000003 9.493178 -0.003246 -20.997088 -18.481882 -0.954104 
-195.411102 46.481842 97.758942 -37.956280 87.178014 35.713847 -8.267193 -0.002553 0.000278 0.464503 6.219532 2.284971 0.000001 -42.978916 0.000345 106.067292 -0.733638 -1.859520 0.000003 -41.965000 0.000603 0.287204 3.266998 14.317451 -0.000031 -6.852529 15.501966 -82.031535 -0.778642 1.390761 8.267209 -0.004821 0.000525 -1.111634 2.449956 9.244913 0.000004 -42.978924 0.000341 111.961581 1.824917 2.017427 0.000001 -41.964970 0.000605 -2.722558 0.479526 -5.078178 0.000005 -6.852536 15.501975 -53.326917 0.251900 -16.319188 0.000005 10.062502 -1.118060 7.620695 3.069317 1.046950 -2.434926 1.287535 0.649608 -0.000001 10.208574 0.001537 3.385504 1.287467 0.649741 -0.000007 10.197187 0.001508 8.377761 1.007295 0.394125 3.104125 8.005703 0.000002 -8.112933 -8.945452 -8.882599 -9.898734 -3.674156 -77.218082 -7.105476 -17.601307 -7.002042 13.319639 8.306186 -0.488906 -3.104123 8.005718 0.000012 -4.239553 -9.222385 10.860914 -12.808048 8.912798 71.053693 9.040959 24.272928 6.415816 23.040052 -7.755931 13.386979 0.000004 14.283468 0.000001 8.343978 -9.712778 1.998757 0.000015 9.493179 -0.003262 -21.061856 -18.374582 -1.003892 
-195.359207 46.486771 97.799011 -34.818590 87.322370 32.585627 -8.267200 -0.002554 0.000295 0.329547 6.205947 2.313619 -0.000005 -42.978916 0.000346 105.998478 -0.671962 -1.807022 0.000007 -41.964981 0.000595 0.289294 3.241077 14.272214 -0.000014 -6.852529 15.501964 -82.008463 -0.719365 1.286674 8.267207 -0.004819 0.000547 -1.224750 2.335231 9.227480 -0.000004 -42.978931 0.000334 111.853159 1.652347 1.912614 0.000008 -41.964981 0.000599 -2.682115 0.637421 -5.059783 -0.000002 -6.852511 15.501974 -53.608912 0.335422 -16.345421 -0.000002 10.062503 -1.118061 7.466997 2.996509 1.104172 -2.502849 1.252421 0.669386 0.000001 10.208582 0.001522 3.317580 1.252352 0.669518 -0.000001 10.197153 0.001529 8.326775 0.982532 0.411230 3.104124 8.005724 -0.000023 -8.035718 -8.977410 -8.944479 -9.928208 -3.851480 -77.664920 -6.548356 -14.599697 -6.007520 12.798372 7.248188 0.802325 -3.104122 8.005715 -0.000007 -4.202032 -8.840607 10.880525 -12.521920 8.876966 71.328116 7.873676 21.162318 6.675324 21.824503 -6.934929 11.108230 0.000003 14.283453 -0.000011 8.339120 -9.679271 1.926765 -0.000001 9.493176 -0.003230 -21.075682 -18.280774 -1.119341 
-195.306305 46.489349 97.803680 -31.710079 87.439283 29.515399 -8.267197 -0.002558 0.000300 0.229244 6.189129 2.280724 -0.000004 -42.978924 0.000340 105.922574 -0.623794 -1.798585 -0.000000 -41.964939 0.000596 0.287156 3.263974 14.248599 -0.000001 -6.852499 15.501966 -82.026508 -0.653984 1.169319 8.267208 -0.004821 0.000537 -1.340723 2.245273 9.280275 0.000007 -42.978920 0.000335 111.759496 1.488606 1.820608 -0.000004 -41.964966 0.000600 -2.636392 0.684553 -5.002803 0.000000 -6.852499 15.501978 -53.843754 0.403970 -16.345747 0.000006 10.062499 -1.118061 7.314347 2.923743 1.155260 -2.570369 1.217727 0.686519 -0.000011 10.208573 0.001521 3.250060 1.217655 0.686645 -0.000007 10.197185 0.001520 8.276086 0.957896 0.426333 3.104124 8.005706 -0.000012 -7.960528 -9.044543 -9.028123 -9.923852 -3.993363 -78.033265 -6.355491 -11.963869 -5.239029 12.028314 6.165636 2.161310 -3.104110 8.005709 -0.000006 -4.200554 -8.459355 10.890303 -12.222928 8.834959 71.583490 6.597113 18.405715 6.730515 20.577237 -6.169352 8.454909 0.000008 14.283449 -0.000008 8.358203 -9.645957 1.851346 -0.000010 9.493201 -0.003248 -21.044590 -18.186060 -1.237693 
-195.247604 46.493065 97.820862 -28.548063 87.532235 26.371688 -8.267197 -0.002551 0.000306 0.145409 6.182904 2.282308 0.000003 -42.978912 0.000368 105.842264 -0.609997 -1.791524 0.000002 -41.964954 0.000603 0.286309 3.299147 14.233977 -0.000006 -6.852528 15.501969 -82.020204 -0.594835 1.064242 8.267197 -0.004812 0.000544 -1.420402 2.182394 9.290568 -0.000004 -42.978916 0.000366 111.644360 1.384194 1.754149 0.000014 -41.964996 0.000605 -2.599047 0.724941 -4.974114 -0.000006 -6.852512 15.501976 -54.128279 0.486547 -16.321688 0.000002 10.062505 -1.118058 7.161377 2.839165 1.198208 -2.638121 1.178349 0.699407 0.000003 10.208569 0.001523 3.182311 1.178276 0.699529 0.000008 10.197167 0.001514 8.225203 0.929468 0.438610 3.104110 8.005713 0.000011 -7.781725 -9.162669 -9.089218 -9.895108 -4.049995 -78.329784 -6.700253 -9.884336 -4.753985 11.352560 5.373236 3.449487 -3.104120 8.005704 0.000005 -4.269019 -8.141748 10.901200 -11.835931 8.891948 71.858446 5.530004 16.086957 6.630904 19.083965 -5.647833 5.490789 -0.000005 14.283447 0.000009 8.405072 -9.595155 1.797517 0.000013 9.493161 -0.003239 -20.955698 -18.070485 -1.303923 
